<mxfile host="65bd71144e">
    <diagram id="RnWDRajf3cZv61y6TUne" name="Page-1">
        <mxGraphModel dx="1038" dy="740" grid="1" gridSize="10" guides="1" tooltips="1" connect="1" arrows="1" fold="1" page="1" pageScale="1" pageWidth="827" pageHeight="1169" math="0" shadow="0">
            <root>
                <mxCell id="0"/>
                <mxCell id="1" parent="0"/>
                <mxCell id="2" value="Pàgina de Login" style="strokeWidth=1;shadow=0;dashed=0;align=center;html=1;shape=mxgraph.mockup.containers.window;align=left;verticalAlign=top;spacingLeft=8;strokeColor2=#008cff;strokeColor3=#c4c4c4;mainText=;fontSize=17;labelBackgroundColor=none;" vertex="1" parent="1">
                    <mxGeometry x="20" y="20" width="790" height="700" as="geometry"/>
                </mxCell>
                <mxCell id="4" value="" style="rounded=0;whiteSpace=wrap;html=1;" vertex="1" parent="1">
                    <mxGeometry x="215" y="105" width="400" height="530" as="geometry"/>
                </mxCell>
                <mxCell id="5" value="" style="verticalLabelPosition=bottom;shadow=0;dashed=0;align=center;html=1;verticalAlign=top;strokeWidth=1;shape=mxgraph.mockup.graphics.simpleIcon;strokeColor=#999999;" vertex="1" parent="1">
                    <mxGeometry x="310" y="120" width="210" height="200" as="geometry"/>
                </mxCell>
                <mxCell id="7" value="Username or E-Mail" style="fillColor=none;strokeColor=none;align=left;fontSize=14;" vertex="1" parent="1">
                    <mxGeometry x="284" y="340" width="150" height="30" as="geometry"/>
                </mxCell>
                <mxCell id="8" value="Username or E-Mail" style="html=1;shadow=0;dashed=0;shape=mxgraph.bootstrap.rrect;rSize=5;fillColor=#ffffff;strokeColor=#CED4DA;align=left;spacing=15;fontSize=14;fontColor=#6C767D;" vertex="1" parent="1">
                    <mxGeometry x="284" y="370" width="260" height="40" as="geometry"/>
                </mxCell>
                <mxCell id="9" value="Password" style="fillColor=none;strokeColor=none;align=left;fontSize=14;" vertex="1" parent="1">
                    <mxGeometry x="285" y="420" width="100" height="30" as="geometry"/>
                </mxCell>
                <mxCell id="10" value="*******" style="html=1;shadow=0;dashed=0;shape=mxgraph.bootstrap.rrect;rSize=5;fillColor=#ffffff;strokeColor=#CED4DA;align=left;spacing=15;fontSize=14;fontColor=#6C767D;" vertex="1" parent="1">
                    <mxGeometry x="285" y="450" width="260" height="40" as="geometry"/>
                </mxCell>
                <mxCell id="23" value="Inicia Sessió" style="html=1;shadow=0;dashed=0;shape=mxgraph.bootstrap.rrect;rSize=5;fillColor=#0085FC;strokeColor=none;align=center;spacing=15;fontSize=14;fontColor=#ffffff;" vertex="1" parent="1">
                    <mxGeometry x="230" y="530" width="370" height="90" as="geometry"/>
                </mxCell>
            </root>
        </mxGraphModel>
    </diagram>
</mxfile>